HIERARCHY
ROOT Hips
{
	OFFSET 46.421398 -17.513813 83.930099
	CHANNELS 6 Xposition Yposition Zposition Xrotation Yrotation Zrotation
	JOINT spine
	{
		OFFSET 0.000000 -0.359108 6.244797
		CHANNELS 3 Xrotation Yrotation Zrotation
		JOINT spine1
		{
			OFFSET 0.000000 0.000000 9.069412
			CHANNELS 3 Xrotation Yrotation Zrotation
			JOINT spine2
			{
				OFFSET 0.000000 -0.000002 8.690140
				CHANNELS 3 Xrotation Yrotation Zrotation
				JOINT Neck
				{
					OFFSET 0.000000 -1.063725 22.311203
					CHANNELS 3 Xrotation Yrotation Zrotation
					JOINT Head
					{
						OFFSET 0.000000 -0.000002 6.740814
						CHANNELS 3 Xrotation Yrotation Zrotation
						End Site
						{
							OFFSET 0.000000 5.380968 16.316498
						}
					}
				}
				JOINT RightShoulder
				{
					OFFSET -3.659161 0.509512 9.384682
					CHANNELS 3 Xrotation Yrotation Zrotation
					JOINT RightArm
					{
						OFFSET 0.000000 -0.000002 12.308907
						CHANNELS 3 Xrotation Yrotation Zrotation
						JOINT RightArmRoll
						{
							OFFSET 0.000000 -0.000002 6.213745
							CHANNELS 3 Xrotation Yrotation Zrotation
							JOINT RightForeArm
							{
								OFFSET 0.000000 -0.000002 18.098495
								CHANNELS 3 Xrotation Yrotation Zrotation
								JOINT RightForeArmRoll
								{
									OFFSET 0.000000 -0.000002 6.972794
									CHANNELS 3 Xrotation Yrotation Zrotation
									JOINT RightHand
									{
										OFFSET 0.000000 -0.000002 13.992905
										CHANNELS 3 Xrotation Yrotation Zrotation
										End Site
										{
											OFFSET 0.000000 0.000000 0.100006
										}
									}
								}
							}
						}
					}
				}
				JOINT LeftShoulder
				{
					OFFSET 3.659161 0.509512 9.384682
					CHANNELS 3 Xrotation Yrotation Zrotation
					JOINT LeftArm
					{
						OFFSET 0.000000 -0.000002 12.308907
						CHANNELS 3 Xrotation Yrotation Zrotation
						JOINT LeftArmRoll
						{
							OFFSET 0.000000 -0.000002 6.213745
							CHANNELS 3 Xrotation Yrotation Zrotation
							JOINT LeftForeArm
							{
								OFFSET 0.000000 -0.000002 18.098495
								CHANNELS 3 Xrotation Yrotation Zrotation
								JOINT LeftForeArmRoll
								{
									OFFSET 0.000000 -0.000002 6.972794
									CHANNELS 3 Xrotation Yrotation Zrotation
									JOINT LeftHand
									{
										OFFSET 0.000000 -0.000002 13.992905
										CHANNELS 3 Xrotation Yrotation Zrotation
										End Site
										{
											OFFSET 0.000000 0.000000 0.100006
										}
									}
								}
							}
						}
					}
				}
			}
		}
	}
	JOINT RightUpLeg
	{
		OFFSET -5.535160 0.851454 -1.014999
		CHANNELS 3 Xrotation Yrotation Zrotation
		JOINT RightUpLegRoll
		{
			OFFSET 0.000000 -0.000002 16.407501
			CHANNELS 3 Xrotation Yrotation Zrotation
			JOINT RightLeg
			{
				OFFSET 0.000000 0.000002 -20.318100
				CHANNELS 3 Xrotation Yrotation Zrotation
				JOINT RightLegRoll
				{
					OFFSET 0.000000 -0.000002 20.384598
					CHANNELS 3 Xrotation Yrotation Zrotation
					JOINT RightFoot
					{
						OFFSET 0.000000 -0.000004 16.966797
						CHANNELS 3 Xrotation Yrotation Zrotation
						JOINT RightToeBase
						{
							OFFSET 0.000000 -0.000002 14.183395
							CHANNELS 3 Xrotation Yrotation Zrotation
							End Site
							{
								OFFSET 0.006012 0.791745 6.868896
							}
						}
					}
				}
			}
		}
	}
	JOINT LeftUpLeg
	{
		OFFSET 5.535160 0.851454 -1.014999
		CHANNELS 3 Xrotation Yrotation Zrotation
		JOINT LeftUpLegRoll
		{
			OFFSET 0.000000 -0.000002 16.407600
			CHANNELS 3 Xrotation Yrotation Zrotation
			JOINT LeftLeg
			{
				OFFSET 0.000000 -0.000004 20.318100
				CHANNELS 3 Xrotation Yrotation Zrotation
				JOINT LeftLegRoll
				{
					OFFSET 0.000000 -0.000004 20.573097
					CHANNELS 3 Xrotation Yrotation Zrotation
					JOINT LeftFoot
					{
						OFFSET 0.000000 -0.000002 16.778305
						CHANNELS 3 Xrotation Yrotation Zrotation
						JOINT LeftToeBase
						{
							OFFSET 0.000000 -0.000004 14.183395
							CHANNELS 3 Xrotation Yrotation Zrotation
							End Site
							{
								OFFSET -0.026943 0.791746 6.868896
							}
						}
					}
				}
			}
		}
	}
}
MOTION
Frames: 8
Frame Time: 0.041667
46.744797 -20.718216 83.913589 -3.296589 -0.428670 -0.848578 -1.338656 0.262919 0.091386 1.321576 0.531538 0.186317 2.966670 0.533808 0.180019 13.006984 -3.148612 0.104006 -3.602320 2.460694 0.278562 0.602434 -66.319129 -0.162190 130.236135 -47.178056 87.381315 -0.000006 0.000002 -0.000009 92.317363 0.406980 -7.544227 0.000006 0.000004 -3.000004 -5.000023 -8.000005 0.000005 -14.034569 60.095966 16.589870 -44.027611 132.448214 88.452958 -0.000007 -0.000000 0.000010 85.308557 2.064030 5.188158 0.000006 -0.000013 2.999991 -4.999856 8.000009 0.000001 -1.582866 -177.014147 1.444538 -179.999991 0.000005 -1.168996 160.537968 0.204605 -1.065699 -0.000002 -0.000001 0.687673 77.494841 6.667740 2.162958 26.020666 -7.347690 0.838566 2.126002 176.039738 -3.875659 -0.000005 -0.000004 -1.251830 -20.370824 0.088187 0.941027 0.000007 -0.000005 -0.908362 78.198310 -6.604253 -2.286532 27.417634 7.264724 -2.865852 
46.748295 -20.703812 83.915703 -3.297216 -0.429554 -0.853406 -1.337288 0.262883 0.091704 1.324537 0.530729 0.186935 2.969639 0.533005 0.180638 13.017731 -3.151058 0.104418 -3.602986 2.477809 0.278236 0.577161 -66.317831 -0.190578 130.132671 -47.208680 87.357252 -0.000009 0.000001 -0.000007 92.345920 0.412039 -7.551437 0.000006 0.000007 -3.000000 -5.000024 -8.000001 0.000001 -14.030593 60.076186 16.584580 -44.086843 132.409460 88.431866 -0.000004 -0.000003 0.000008 85.333030 2.036851 5.207310 0.000008 -0.000011 2.999989 -4.999853 8.000016 -0.000000 -1.590232 -177.011142 1.443961 -179.999991 0.000005 -1.168995 160.545468 0.204614 -1.065726 -0.000001 -0.000001 0.687058 77.487219 6.667728 2.163006 26.016834 -7.347702 0.833947 2.122408 176.041705 -3.874027 -0.000005 -0.000004 -1.251830 -20.360924 0.090960 0.941036 0.000008 -0.000005 -0.907541 78.194410 -6.604256 -2.285961 27.414711 7.264890 -2.860442 
46.750195 -20.675613 83.914810 -3.297773 -0.430495 -0.858130 -1.335943 0.262859 0.092034 1.327447 0.529909 0.187575 2.972549 0.532193 0.181279 13.028875 -3.153187 0.104779 -3.604000 2.494643 0.277849 0.552558 -66.316718 -0.218234 130.029166 -47.239204 87.332199 -0.000007 0.000003 -0.000009 92.374811 0.416896 -7.559644 0.000006 0.000005 -3.000001 -5.000022 -8.000002 0.000006 -14.026107 60.056870 16.578694 -44.145715 132.370528 88.411854 -0.000005 -0.000000 0.000006 85.356136 2.010418 5.225726 0.000008 -0.000012 2.999992 -4.999852 8.000016 0.000003 -1.597653 -177.008164 1.443421 -179.999991 0.000005 -1.168995 160.552967 0.204624 -1.065752 -0.000002 -0.000001 0.686444 77.479508 6.667760 2.162963 26.012997 -7.347707 0.829393 2.118713 176.044711 -3.872390 -0.000005 -0.000004 -1.251830 -20.351027 0.093829 0.941046 0.000007 -0.000005 -0.906718 78.190380 -6.604244 -2.285391 27.411800 7.265032 -2.855091 
46.751797 -20.661915 83.910507 -3.298275 -0.431477 -0.862783 -1.334635 0.262844 0.092374 1.330317 0.529079 0.188231 2.975408 0.531372 0.181936 13.040219 -3.155099 0.105100 -3.605268 2.511277 0.277416 0.528429 -66.315796 -0.245373 129.926590 -47.269065 87.307549 -0.000008 0.000005 -0.000011 92.404236 0.421669 -7.568857 0.000006 0.000006 -3.000001 -5.000025 -8.000005 0.000005 -14.021175 60.037697 16.572284 -44.203553 132.332210 88.391527 -0.000008 -0.000001 0.000009 85.378130 1.984589 5.243498 0.000007 -0.000015 2.999991 -4.999854 8.000013 0.000004 -1.605130 -177.005172 1.442907 -179.999991 0.000005 -1.168995 160.560358 0.204633 -1.065779 -0.000002 -0.000001 0.685831 77.471789 6.667763 2.162920 26.009150 -7.347701 0.824874 2.114959 176.046692 -3.870839 -0.000005 -0.000004 -1.251830 -20.341130 0.096764 0.941059 0.000006 -0.000005 -0.905891 78.186152 -6.604289 -2.284845 27.408979 7.265165 -2.849798 
46.758198 -20.640911 83.910789 -3.298746 -0.432481 -0.867393 -1.333336 0.262832 0.092720 1.333156 0.528247 0.188896 2.978258 0.530547 0.182602 13.051761 -3.156891 0.105405 -3.606679 2.527790 0.276959 0.504568 -66.314983 -0.272220 129.823195 -47.299463 87.281410 -0.000007 0.000004 -0.000010 92.433770 0.426356 -7.577058 0.000009 0.000008 -3.000000 -5.000023 -8.000004 0.000003 -14.016023 60.018641 16.565613 -44.260387 132.294480 88.370627 -0.000006 0.000000 0.000008 85.399542 1.959078 5.261001 0.000008 -0.000013 2.999990 -4.999851 8.000018 -0.000001 -1.612635 -177.002194 1.442411 -179.999991 0.000005 -1.168996 160.567666 0.203702 -1.066137 -0.000002 -0.000001 0.685218 77.464153 6.667721 2.162964 26.005416 -7.347697 0.820393 2.111161 176.049683 -3.869265 -0.000004 -0.000005 -1.251830 -20.331233 0.099738 0.941069 0.000007 -0.000005 -0.905063 78.182013 -6.604282 -2.284286 27.406165 7.265292 -2.844529 
46.760498 -20.625113 83.914307 -3.299213 -0.433492 -0.871994 -1.332042 0.262821 0.093067 1.335996 0.527413 0.189563 2.981098 0.529720 0.183269 13.063301 -3.158643 0.105700 -3.608126 2.544283 0.276497 0.480773 -66.314156 -0.298994 129.720592 -47.329130 87.256302 -0.000008 0.000003 -0.000009 92.463303 0.431041 -7.585262 0.000005 0.000008 -3.000001 -5.000024 -8.000003 0.000004 -14.010821 59.999612 16.558872 -44.317191 132.256737 88.349747 -0.000006 -0.000002 0.000007 85.420832 1.933658 5.278522 0.000010 -0.000009 2.999990 -4.999854 8.000016 0.000001 -1.620137 -176.999189 1.441923 -179.999991 0.000005 -1.168996 160.575070 0.203711 -1.066163 -0.000004 -0.000001 0.684605 77.456428 6.667720 2.163020 26.001576 -7.347699 0.815908 2.107350 176.051664 -3.867730 -0.000005 -0.000005 -1.251830 -20.321332 0.102720 0.941080 0.000007 -0.000005 -0.904234 78.177765 -6.604282 -2.283734 27.403440 7.265417 -2.839282 
46.756897 -20.634111 83.914200 -3.299697 -0.434491 -0.876615 -1.330734 0.262808 0.093411 1.338847 0.526581 0.190226 2.983947 0.528897 0.183933 13.074743 -3.160465 0.106007 -3.609504 2.560827 0.276049 0.456850 -66.313330 -0.325908 129.617156 -47.359340 87.230292 -0.000008 0.000001 -0.000008 92.492837 0.435762 -7.594478 0.000004 0.000005 -3.000003 -5.000024 -8.000004 0.000003 -14.005756 59.980556 16.552301 -44.374626 132.218215 88.329529 -0.000004 -0.000004 0.000009 85.442531 1.908052 5.296131 0.000005 -0.000010 2.999991 -4.999856 8.000013 0.000002 -1.627632 -176.996211 1.441416 -179.999991 0.000005 -1.168995 160.582378 0.203720 -1.065192 -0.000001 -0.000001 0.683993 77.448703 6.667713 2.163074 25.997737 -7.347702 0.811415 2.103564 176.054656 -3.866159 -0.000005 -0.000004 -1.251830 -20.311437 0.105683 0.941089 0.000005 -0.000005 -0.903406 78.173619 -6.604275 -2.283176 27.400620 7.265545 -2.834006 
46.757797 -20.611113 83.910500 -3.300218 -0.435461 -0.881288 -1.329413 0.262790 0.093749 1.341726 0.525755 0.190878 2.986827 0.528079 0.184586 13.086084 -3.162434 0.106345 -3.610698 2.577511 0.275632 0.432592 -66.312299 -0.353188 129.513678 -47.389451 87.204761 -0.000005 0.000005 -0.000009 92.522043 0.440543 -7.601703 0.000004 0.000005 -3.000002 -5.000022 -8.000002 0.000001 -14.000978 59.961274 16.546060 -44.432313 132.179802 88.308738 -0.000007 -0.000000 0.000008 85.464900 1.882113 5.314233 0.000008 -0.000009 2.999992 -4.999856 8.000013 0.000003 -1.635096 -176.993233 1.440899 -179.999991 0.000005 -1.168995 160.589769 0.203730 -1.065218 -0.000002 -0.000001 0.683380 77.440992 6.667728 2.163130 25.993900 -7.347696 0.806876 2.099831 176.056636 -3.864590 -0.000005 -0.000005 -1.251830 -20.301537 0.108600 0.941097 0.000007 -0.000005 -0.902579 78.169500 -6.604285 -2.282615 27.397800 7.265682 -2.828703 
